<svg width="24" height="24" viewBox="0 0 24 24" fill="none" xmlns="http://www.w3.org/2000/svg">
<path d="M16.6667 2.66675L7.33333 2.66675C6.97971 2.66675 6.64057 2.80722 6.39052 3.05727C6.14048 3.30732 6 3.64646 6 4.00008L6 20.0001C6 20.3537 6.14048 20.6928 6.39052 20.9429C6.64057 21.1929 6.97971 21.3334 7.33333 21.3334L16.6667 21.3334C17.0203 21.3334 17.3594 21.1929 17.6095 20.9429C17.8595 20.6928 18 20.3537 18 20.0001L18 4.00008C18 3.64646 17.8595 3.30732 17.6095 3.05727C17.3594 2.80722 17.0203 2.66675 16.6667 2.66675ZM7.33333 4.00008L16.6667 4.00008L16.6667 16.0001L7.33333 16.0001L7.33333 4.00008ZM7.33333 20.0001L7.33333 17.3334L16.6667 17.3334L16.6667 20.0001L7.33333 20.0001Z" fill="white"/>
<path d="M11.3334 18L12.6667 18L12.6667 19.3333L11.3334 19.3333L11.3334 18Z" fill="white"/>
</svg>
