<svg width="1440" height="634" viewBox="0 0 1440 634" fill="none" xmlns="http://www.w3.org/2000/svg">
<rect x="-273.446" y="165.457" width="2226" height="124.51" transform="rotate(4.58881 -273.446 165.457)" fill="#FBF5FF"/>
<path d="M66.2675 272.896L57.4316 272.216L71.6944 245.091L82.9591 245.958L92.9425 274.951L83.8973 274.254L82.1615 268.897L68.8449 267.871L66.2675 272.896ZM74.2994 257.213L72.3631 261.023L79.817 261.597L78.487 257.535L77.0088 252.661L76.4645 252.619L74.2994 257.213ZM103.333 275.751L95.4603 275.145L97.6209 247.088L113.157 248.284C119.815 248.797 123.709 252.93 123.197 259.588C122.684 266.247 118.2 269.777 111.541 269.264L103.878 268.674L103.333 275.751ZM111.733 255.293L104.949 254.771L104.423 261.597L111.207 262.119C113.971 262.332 115.143 261.875 115.366 258.985C115.585 256.138 114.496 255.506 111.733 255.293ZM133.062 278.04L125.189 277.434L127.35 249.377L135.222 249.983L133.062 278.04ZM159.431 280.071L145.235 278.978L147.395 250.921L161.591 252.014C170.846 252.727 176.312 258.329 175.628 267.207C174.945 276.084 168.685 280.783 159.431 280.071ZM161.046 259.091L154.723 258.604L153.653 272.507L159.976 272.994C164.959 273.378 166.724 272.882 167.211 266.558C167.698 260.235 166.03 259.475 161.046 259.091ZM203.222 283.443L178.306 281.524L180.467 253.467L205.383 255.386L204.838 262.463L187.794 261.151L187.536 264.501L203.952 265.765L203.41 272.8L186.995 271.536L186.724 275.054L203.767 276.366L203.222 283.443ZM228.031 285.354L216.725 284.483L207.621 255.559L217.127 256.291L222.823 276.949L223.368 276.991L231.993 257.435L241.457 258.164L228.031 285.354ZM266.728 288.334L241.812 286.415L243.973 258.358L268.889 260.277L268.344 267.354L251.3 266.041L251.042 269.391L267.458 270.655L266.916 277.691L250.501 276.427L250.23 279.944L267.273 281.257L266.728 288.334ZM294.72 290.489L270.641 288.635L272.802 260.578L280.674 261.184L279.059 282.164L295.265 283.412L294.72 290.489ZM313.574 292.362C303.816 291.611 298.476 285.471 299.15 276.719C299.824 267.967 306.042 262.717 315.799 263.468C325.807 264.239 331.064 270.372 330.39 279.124C329.716 287.877 323.582 293.133 313.574 292.362ZM314.154 284.825C319.849 285.263 321.586 284.049 322.014 278.48C322.443 272.91 320.913 271.444 315.218 271.006C309.523 270.567 307.954 271.794 307.525 277.364C307.096 282.933 308.459 284.386 314.154 284.825ZM340.956 294.05L333.084 293.444L335.244 265.387L350.78 266.583C357.439 267.096 361.333 271.229 360.82 277.887C360.307 284.546 355.823 288.076 349.165 287.563L341.501 286.973L340.956 294.05ZM349.356 273.592L342.572 273.07L342.046 279.896L348.83 280.418C351.594 280.631 352.767 280.174 352.989 277.284C353.209 274.437 352.12 273.805 349.356 273.592ZM370.685 296.339L362.812 295.733L364.973 267.676L375.652 268.498L379.906 280.537L382.112 287.994L382.656 288.036L385.852 280.994L391.648 269.73L402.327 270.553L400.166 298.61L392.293 298.003L393.186 286.404L393.841 281.736L393.296 281.694L391.344 286.262L386.392 295.864L376.844 295.129L373.421 284.881L372.191 280.069L371.646 280.027L371.578 284.74L370.685 296.339ZM429.276 300.851L404.36 298.932L406.52 270.876L431.437 272.794L430.892 279.871L413.848 278.559L413.59 281.909L430.005 283.173L429.464 290.208L413.048 288.944L412.777 292.462L429.821 293.774L429.276 300.851ZM441.061 301.759L433.189 301.153L435.349 273.096L443.725 273.741L450.704 284.851L454.311 291.616L454.856 291.658L454.95 285.515L455.785 274.669L463.658 275.276L461.497 303.333L453.122 302.688L445.662 291.245L442.528 285.443L441.984 285.401L441.906 290.787L441.061 301.759ZM482.867 304.978L474.995 304.372L476.61 283.392L466.686 282.628L467.231 275.551L494.911 277.682L494.366 284.759L484.483 283.998L482.867 304.978Z" fill="black"/>
<path d="M676.345 317.479L667.514 316.737L681.967 289.713L693.225 290.659L703.005 319.721L693.964 318.961L692.266 313.592L678.957 312.472L676.345 317.479ZM684.487 301.852L682.524 305.649L689.973 306.276L688.672 302.204L687.228 297.32L686.684 297.274L684.487 301.852ZM713.389 320.594L705.521 319.932L707.879 291.891L723.406 293.197C730.061 293.757 733.926 297.917 733.366 304.572C732.806 311.226 728.297 314.725 721.643 314.165L713.984 313.521L713.389 320.594ZM721.932 300.196L715.152 299.626L714.579 306.448L721.359 307.018C724.121 307.25 725.297 306.801 725.54 303.914C725.779 301.068 724.695 300.428 721.932 300.196ZM743.101 323.092L735.233 322.431L737.591 294.39L753.118 295.695C759.772 296.255 763.637 300.415 763.078 307.07C762.518 313.725 758.009 317.223 751.355 316.663L743.696 316.019L743.101 323.092ZM751.644 302.695L744.864 302.124L744.291 308.946L751.071 309.516C753.833 309.749 755.009 309.3 755.251 306.412C755.491 303.566 754.406 302.927 751.644 302.695ZM787.112 326.793L772.924 325.6L775.282 297.559L789.47 298.752C798.719 299.53 804.145 305.17 803.399 314.043C802.653 322.916 796.361 327.571 787.112 326.793ZM788.875 305.825L782.555 305.294L781.387 319.189L787.706 319.72C792.687 320.139 794.456 319.655 794.987 313.336C795.518 307.016 793.855 306.244 788.875 305.825ZM830.878 330.473L805.976 328.379L808.334 300.338L833.236 302.432L832.642 309.505L815.608 308.073L815.326 311.421L831.732 312.801L831.141 319.832L814.735 318.452L814.439 321.968L831.473 323.4L830.878 330.473ZM855.673 332.558L844.373 331.608L835.473 302.62L844.973 303.419L850.524 324.117L851.069 324.163L859.831 304.669L869.289 305.464L855.673 332.558ZM894.348 335.81L869.446 333.716L871.804 305.675L896.706 307.769L896.111 314.842L879.078 313.41L878.796 316.758L895.202 318.138L894.611 325.169L878.205 323.789L877.909 327.305L894.943 328.737L894.348 335.81ZM922.324 338.163L898.259 336.139L900.617 308.098L908.485 308.76L906.722 329.728L922.919 331.09L922.324 338.163ZM941.164 340.168C931.413 339.348 926.116 333.171 926.851 324.424C927.587 315.677 933.841 310.47 943.592 311.29C953.595 312.131 958.808 318.302 958.073 327.049C957.337 335.796 951.167 341.01 941.164 340.168ZM941.798 332.635C947.49 333.114 949.234 331.912 949.702 326.345C950.171 320.779 948.651 319.302 942.959 318.824C937.267 318.345 935.69 319.561 935.222 325.128C934.754 330.694 936.106 332.156 941.798 332.635ZM968.534 342.048L960.666 341.387L963.024 313.346L978.551 314.651C985.206 315.211 989.071 319.371 988.511 326.026C987.952 332.681 983.443 336.179 976.788 335.619L969.129 334.975L968.534 342.048ZM977.078 321.651L970.298 321.08L969.724 327.902L976.504 328.472C979.266 328.705 980.442 328.256 980.685 325.368C980.924 322.522 979.84 321.883 977.078 321.651ZM998.246 344.547L990.378 343.885L992.736 315.844L1003.41 316.742L1007.58 328.809L1009.73 336.282L1010.28 336.328L1013.52 329.309L1019.4 318.086L1030.07 318.983L1027.71 347.024L1019.84 346.363L1020.82 334.77L1021.5 330.107L1020.96 330.061L1018.98 334.615L1013.96 344.182L1004.41 343.38L1001.06 333.109L999.866 328.287L999.322 328.242L999.221 332.954L998.246 344.547ZM1056.8 349.471L1031.9 347.377L1034.26 319.336L1059.16 321.43L1058.57 328.503L1041.53 327.07L1041.25 330.419L1057.66 331.798L1057.07 338.829L1040.66 337.45L1040.36 340.965L1057.4 342.398L1056.8 349.471ZM1068.58 350.461L1060.71 349.8L1063.07 321.759L1071.44 322.462L1078.34 333.622L1081.9 340.412L1082.45 340.458L1082.58 334.316L1083.5 323.476L1091.36 324.138L1089.01 352.179L1080.64 351.475L1073.26 339.98L1070.16 334.156L1069.62 334.111L1069.5 339.496L1068.58 350.461ZM1110.37 353.975L1102.5 353.313L1104.26 332.345L1094.34 331.511L1094.94 324.438L1122.6 326.764L1122.01 333.837L1112.13 333.007L1110.37 353.975Z" fill="black"/>
<path d="M1294.67 370.241C1284.88 369.332 1280.8 364.187 1281.49 356.743L1283 340.475L1290.87 341.205L1289.42 356.846C1289.05 360.819 1290.06 362.136 1295.37 362.629C1300.69 363.122 1301.93 362.015 1302.3 358.042L1303.75 342.401L1311.61 343.131L1310.1 359.399C1309.41 366.843 1304.45 371.149 1294.67 370.241ZM1321.65 372.324L1311.36 371.369L1323.22 358.592L1323.27 358.049L1313.97 343.349L1324.25 344.304L1330.19 354.008L1330.73 354.059L1337.97 345.578L1348.26 346.533L1336.43 359.439L1336.38 359.982L1345.66 374.552L1335.37 373.597L1329.48 363.855L1328.94 363.805L1321.65 372.324ZM1354.4 376.207L1345.99 375.427L1363.8 347.132L1372.21 347.912L1354.4 376.207ZM1385.41 378.664C1375.62 377.756 1371.55 372.611 1372.24 365.167L1373.75 348.899L1381.61 349.629L1380.16 365.269C1379.79 369.242 1380.8 370.56 1386.12 371.053C1391.43 371.546 1392.67 370.438 1393.04 366.465L1394.49 350.824L1402.35 351.554L1400.84 367.822C1400.15 375.266 1395.2 379.573 1385.41 378.664ZM1411.64 380.678L1403.78 379.948L1406.38 351.928L1414.24 352.658L1411.64 380.678ZM1437.98 383.122L1423.8 381.806L1426.4 353.787L1440.58 355.103C1449.82 355.961 1455.2 361.648 1454.37 370.514C1453.55 379.38 1447.22 383.98 1437.98 383.122ZM1439.92 362.17L1433.61 361.584L1432.32 375.468L1438.63 376.055C1443.61 376.517 1445.38 376.048 1445.97 369.734C1446.55 363.419 1444.9 362.632 1439.92 362.17ZM1481.71 387.182L1456.83 384.872L1459.43 356.853L1484.31 359.162L1483.65 366.23L1466.63 364.65L1466.32 367.996L1482.72 369.517L1482.06 376.543L1465.67 375.021L1465.34 378.534L1482.36 380.114L1481.71 387.182ZM1499.17 389.225C1490.6 388.429 1485.65 384.891 1486.31 377.781L1486.33 377.53L1494.2 378.26L1494.12 379.138C1493.94 381.02 1494.56 381.584 1499.83 382.073C1504.6 382.516 1505.14 382.186 1505.25 380.932C1505.35 379.928 1504.84 379.459 1502.57 378.953L1493.89 376.967C1488.73 375.77 1486.36 372.724 1486.78 368.207C1487.19 363.733 1491.1 359.371 1501.22 360.31C1510.13 361.137 1514.03 365.423 1513.45 371.696L1513.43 371.947L1505.56 371.217L1505.62 370.589C1505.81 368.582 1504.99 367.831 1499.72 367.342C1495.71 366.97 1494.78 367.432 1494.67 368.644C1494.59 369.523 1495.05 369.987 1496.54 370.336L1505.2 372.448C1511.96 374.088 1513.48 377.772 1513.14 381.369C1512.7 386.178 1508.62 390.102 1499.17 389.225ZM1523.74 391.084L1515.88 390.354L1518.48 362.334L1526.34 363.064L1523.74 391.084ZM1541.43 393.148C1532.61 392.329 1527.99 386.164 1528.81 377.424C1529.62 368.683 1536.17 363.555 1546.37 364.502C1555.86 365.383 1561.12 370.089 1560.48 377.031L1560.45 377.324L1551.67 376.509L1551.69 376.216C1551.94 373.623 1550.44 372.472 1545.46 372.01C1539.44 371.451 1537.69 372.638 1537.17 378.2C1536.65 383.762 1538.08 385.244 1543.76 385.772C1549.58 386.312 1551.28 386.174 1551.85 384.076L1543.24 383.276L1543.77 377.505L1560.33 379.043L1558.91 394.349L1551.59 393.669L1552.15 387.689L1551.73 387.65C1550.67 390.842 1548 393.758 1541.43 393.148ZM1570.78 395.451L1562.92 394.721L1565.52 366.701L1573.89 367.478L1580.69 378.697L1584.19 385.518L1584.73 385.568L1584.92 379.427L1585.93 368.596L1593.79 369.326L1591.19 397.345L1582.83 396.569L1575.55 385.011L1572.51 379.16L1571.96 379.11L1571.8 384.494L1570.78 395.451Z" fill="black"/>
<g clip-path="url(#clip0_91_8289)">
<path d="M1192.3 352.228L1218.23 352.298L1192.83 347.056L1211.2 328.851L1189.62 343.105L1189.69 317.174L1184.45 342.569L1166.24 324.197L1180.5 345.779L1154.57 345.709L1179.96 350.952L1161.59 369.157L1183.17 354.903L1183.1 380.834L1188.34 355.439L1206.55 373.811L1192.3 352.228Z" fill="#D90C0C"/>
</g>
<g clip-path="url(#clip1_91_8289)">
<path d="M607.844 300.779L633.774 300.849L608.379 295.607L626.751 277.402L605.169 291.655L605.239 265.725L599.997 291.12L581.791 272.748L596.045 294.33L570.115 294.26L595.51 299.503L577.138 317.708L598.72 303.454L598.65 329.385L603.892 303.989L622.098 322.361L607.844 300.779Z" fill="#D90C0C"/>
</g>
<rect x="-294" y="312.824" width="2226" height="124.51" transform="rotate(-4.31478 -294 312.824)" fill="#FBF5FF"/>
<rect x="-294" y="312.824" width="2226" height="124.51" transform="rotate(-4.31478 -294 312.824)" stroke="black"/>
<path d="M85.6012 367.956L73.9193 368.876L65.8496 341.284L74.6424 340.592L78.1108 354.685L79.3621 360.948L79.9064 360.905L80.5393 354.494L83.184 339.919L95.0333 338.987L99.5904 352.995L101.093 359.238L101.637 359.195L101.977 352.807L103.491 338.321L112.116 337.642L107.918 366.2L96.2363 367.119L92.3596 355.333L89.8253 346.685L89.281 346.728L88.005 355.676L85.6012 367.956ZM142.547 363.475L117.634 365.435L115.426 337.382L140.339 335.421L140.896 342.497L123.855 343.839L124.118 347.188L140.532 345.896L141.085 352.931L124.672 354.222L124.949 357.74L141.99 356.398L142.547 363.475ZM165.259 361.687L146.459 363.167L144.251 335.113L162.088 333.71C168.16 333.232 171.362 335.381 171.708 339.778C171.991 343.378 170.308 346.081 165.217 346.692L165.25 347.111C170.877 346.879 173.761 349.264 174.067 353.158C174.439 357.889 171.958 361.16 165.259 361.687ZM152.638 341.573L152.918 345.132L162.088 344.411C163.679 344.285 164.103 343.789 164.001 342.491C163.899 341.193 163.231 340.74 161.598 340.868L152.638 341.573ZM153.426 351.58L153.732 355.474L163.697 354.69C165.582 354.542 166.138 354.119 166.013 352.528C165.891 350.978 165.317 350.644 163.391 350.796L153.426 351.58ZM200.201 358.937L186.007 360.054L183.799 332.001L197.993 330.884C207.246 330.156 213.514 334.844 214.212 343.721C214.911 352.597 209.454 358.209 200.201 358.937ZM198.55 337.96L192.227 338.458L193.321 352.359L199.644 351.861C204.626 351.469 206.294 350.706 205.796 344.383C205.299 338.061 203.532 337.568 198.55 337.96ZM243.987 355.491L219.074 357.452L216.866 329.398L241.779 327.438L242.336 334.514L225.294 335.855L225.558 339.205L241.971 337.913L242.525 344.947L226.112 346.239L226.388 349.756L243.43 348.415L243.987 355.491ZM268.792 353.539L257.487 354.429L244.016 327.262L253.521 326.514L262.346 346.041L262.89 345.999L268.385 325.344L277.848 324.599L268.792 353.539ZM307.484 350.494L282.571 352.454L280.363 324.401L305.276 322.44L305.833 329.517L288.792 330.858L289.056 334.207L305.469 332.916L306.022 339.95L289.609 341.242L289.886 344.759L306.927 343.418L307.484 350.494ZM335.472 348.291L311.396 350.186L309.189 322.133L317.06 321.513L318.711 342.49L334.915 341.215L335.472 348.291ZM354.389 347.224C344.633 347.991 338.406 342.752 337.718 334.001C337.029 325.25 342.359 319.101 352.115 318.333C362.122 317.545 368.264 322.792 368.953 331.542C369.642 340.293 364.396 346.436 354.389 347.224ZM353.795 339.687C359.49 339.239 361.017 337.77 360.579 332.202C360.141 326.633 358.402 325.421 352.708 325.87C347.014 326.318 345.654 327.773 346.092 333.342C346.53 338.91 348.101 340.135 353.795 339.687ZM381.703 344.653L373.831 345.272L371.623 317.219L387.157 315.996C393.815 315.472 398.301 318.953 398.825 325.61C399.349 332.268 395.465 336.449 388.808 336.973L381.146 337.576L381.703 344.653ZM386.835 323.142L380.052 323.675L380.589 330.5L387.372 329.966C390.135 329.749 391.223 329.116 390.996 326.227C390.772 323.379 389.598 322.924 386.835 323.142ZM411.427 342.313L403.556 342.933L401.348 314.879L412.025 314.039L418.091 325.274L421.425 332.3L421.969 332.257L424.037 324.806L428.02 312.78L438.696 311.94L440.904 339.993L433.033 340.613L432.12 329.015L432.044 324.302L431.5 324.345L430.278 329.16L426.872 339.412L417.325 340.164L412.357 330.57L410.397 326.006L409.853 326.049L410.515 330.715L411.427 342.313ZM470.011 337.703L445.098 339.663L442.89 311.61L467.803 309.649L468.36 316.725L451.318 318.067L451.582 321.416L467.995 320.125L468.549 327.159L452.136 328.451L452.412 331.968L469.454 330.626L470.011 337.703ZM481.794 336.775L473.923 337.395L471.715 309.341L480.089 308.682L488.704 318.579L493.315 324.704L493.859 324.661L493.001 318.578L492.148 307.733L500.019 307.114L502.227 335.167L493.853 335.826L484.713 325.676L480.719 320.429L480.174 320.472L480.931 325.805L481.794 336.775ZM523.595 333.485L515.723 334.105L514.072 313.128L504.149 313.909L503.592 306.833L531.269 304.654L531.826 311.731L521.944 312.508L523.595 333.485Z" fill="black"/>
<path d="M667.875 316.013L659.035 316.646L669.132 287.71L680.401 286.903L694.56 314.101L685.511 314.749L683.003 309.708L669.681 310.662L667.875 316.013ZM673.5 299.314L672.148 303.369L679.605 302.835L677.689 299.014L675.507 294.412L674.962 294.451L673.5 299.314ZM704.955 313.356L697.079 313.921L695.068 285.853L710.611 284.739C717.272 284.262 721.734 287.774 722.211 294.435C722.688 301.096 718.775 305.25 712.114 305.727L704.448 306.277L704.955 313.356ZM710.238 291.882L703.451 292.368L703.941 299.197L710.727 298.711C713.492 298.513 714.584 297.887 714.377 294.996C714.173 292.148 713.003 291.684 710.238 291.882ZM734.695 311.226L726.819 311.79L724.809 283.722L740.351 282.609C747.012 282.132 751.474 285.644 751.952 292.305C752.429 298.966 748.515 303.12 741.855 303.597L734.188 304.146L734.695 311.226ZM739.979 289.752L733.192 290.238L733.681 297.066L740.468 296.58C743.233 296.382 744.325 295.757 744.118 292.866C743.914 290.017 742.743 289.554 739.979 289.752ZM778.748 308.071L764.547 309.088L762.536 281.02L776.738 280.003C785.996 279.339 792.23 284.072 792.866 292.953C793.503 301.835 788.007 307.408 778.748 308.071ZM777.245 287.082L770.919 287.536L771.915 301.444L778.241 300.991C783.226 300.634 784.899 299.882 784.446 293.557C783.993 287.231 782.23 286.725 777.245 287.082ZM822.557 304.933L797.631 306.718L795.621 278.65L820.547 276.865L821.054 283.944L804.004 285.166L804.244 288.517L820.666 287.341L821.17 294.379L804.748 295.555L805 299.074L822.05 297.853L822.557 304.933ZM847.376 303.155L836.065 303.965L822.785 276.704L832.295 276.023L840.983 295.612L841.527 295.573L847.167 274.958L856.635 274.28L847.376 303.155ZM886.088 300.382L861.162 302.167L859.152 274.099L884.078 272.314L884.585 279.394L867.535 280.615L867.775 283.966L884.197 282.79L884.701 289.828L868.279 291.004L868.531 294.523L885.581 293.302L886.088 300.382ZM914.091 298.376L890.003 300.102L887.992 272.033L895.868 271.469L897.372 292.458L913.584 291.296L914.091 298.376ZM933.015 297.442C923.254 298.141 917.064 292.858 916.437 284.102C915.81 275.346 921.183 269.235 930.944 268.536C940.957 267.819 947.062 273.108 947.689 281.863C948.316 290.619 943.027 296.725 933.015 297.442ZM932.475 289.901C938.172 289.493 939.71 288.035 939.311 282.464C938.912 276.892 937.182 275.668 931.484 276.076C925.787 276.485 924.417 277.93 924.816 283.502C925.215 289.074 926.777 290.309 932.475 289.901ZM960.346 295.063L952.47 295.627L950.46 267.559L966.002 266.446C972.663 265.969 977.125 269.481 977.602 276.142C978.08 282.803 974.166 286.957 967.505 287.434L959.839 287.983L960.346 295.063ZM965.629 273.589L958.843 274.075L959.332 280.903L966.119 280.417C968.883 280.219 969.976 279.593 969.768 276.703C969.564 273.854 968.394 273.391 965.629 273.589ZM990.087 292.933L982.211 293.497L980.2 265.429L990.883 264.663L996.87 275.941L1000.15 282.99L1000.7 282.951L1002.82 275.514L1006.89 263.517L1017.57 262.752L1019.58 290.82L1011.7 291.384L1010.87 279.78L1010.83 275.067L1010.28 275.106L1009.03 279.912L1005.55 290.141L995.999 290.825L991.099 281.196L989.171 276.618L988.626 276.657L989.256 281.328L990.087 292.933ZM1048.7 288.734L1023.77 290.52L1021.76 262.451L1046.69 260.666L1047.2 267.746L1030.15 268.967L1030.39 272.319L1046.81 271.142L1047.31 278.18L1030.89 279.357L1031.14 282.876L1048.19 281.654L1048.7 288.734ZM1060.49 287.89L1052.62 288.454L1050.6 260.386L1058.98 259.786L1067.53 269.742L1072.1 275.9L1072.64 275.861L1071.83 269.771L1071.05 258.921L1078.92 258.357L1080.93 286.425L1072.56 287.025L1063.49 276.811L1059.53 271.536L1058.99 271.575L1059.7 276.914L1060.49 287.89ZM1102.31 284.894L1094.44 285.458L1092.93 264.47L1083.01 265.181L1082.5 258.101L1110.19 256.118L1110.7 263.197L1100.81 263.906L1102.31 284.894Z" fill="black"/>
<path d="M1256.54 272.306C1247.95 272.847 1242.52 270.117 1242.07 262.991L1242.05 262.739L1249.93 262.243L1249.99 263.124C1250.11 265.01 1250.81 265.471 1256.09 265.138C1260.87 264.838 1261.35 264.429 1261.27 263.171C1261.21 262.165 1260.63 261.78 1258.31 261.632L1249.43 261.012C1244.15 260.629 1241.33 257.987 1241.05 253.46C1240.76 248.975 1243.95 244.061 1254.09 243.423C1263.02 242.861 1267.54 246.491 1267.94 252.778L1267.95 253.03L1260.07 253.525L1260.03 252.897C1259.91 250.885 1258.98 250.269 1253.7 250.602C1249.68 250.855 1248.83 251.455 1248.91 252.671C1248.96 253.551 1249.49 253.938 1251.02 254.053L1259.9 254.799C1266.84 255.372 1268.9 258.777 1269.13 262.382C1269.43 267.203 1266.01 271.71 1256.54 272.306ZM1298.16 269.267L1273.22 270.836L1271.46 242.751L1296.4 241.182L1296.84 248.266L1279.78 249.34L1279.99 252.693L1296.42 251.659L1296.87 258.701L1280.44 259.735L1280.66 263.256L1297.72 262.183L1298.16 269.267ZM1317.24 268.487C1307.47 269.102 1301.33 263.765 1300.78 255.004C1300.23 246.244 1305.65 240.179 1315.42 239.565C1325.44 238.934 1331.5 244.276 1332.05 253.037C1332.6 261.798 1327.26 267.857 1317.24 268.487ZM1316.76 260.942C1322.46 260.584 1324.01 259.14 1323.66 253.565C1323.31 247.99 1321.59 246.751 1315.89 247.11C1310.19 247.468 1308.81 248.902 1309.16 254.477C1309.51 260.052 1311.06 261.301 1316.76 260.942Z" fill="black"/>
<g clip-path="url(#clip2_91_8289)">
<path d="M1182.99 270.488L1208.62 266.544L1182.71 265.295L1198.05 244.466L1178.93 261.888L1174.99 236.259L1173.74 262.16L1152.91 246.827L1170.33 265.943L1144.7 269.887L1170.6 271.136L1155.27 291.965L1174.39 274.543L1178.33 300.172L1179.58 274.271L1200.41 289.604L1182.99 270.488Z" fill="#D90C0C"/>
</g>
<g clip-path="url(#clip3_91_8289)">
<path d="M597.614 310.116L623.243 306.172L597.343 304.923L612.676 284.094L593.56 301.516L589.615 275.887L588.367 301.788L567.537 286.455L584.96 305.571L559.331 309.515L585.231 310.764L569.898 331.593L589.014 314.171L592.959 339.8L594.207 313.899L615.037 329.232L597.614 310.116Z" fill="#D90C0C"/>
</g>
<defs>
<clipPath id="clip0_91_8289">
<rect width="64" height="64" fill="white" transform="translate(1157.86 313.879) rotate(5.90934)"/>
</clipPath>
<clipPath id="clip1_91_8289">
<rect width="64" height="64" fill="white" transform="translate(573.409 262.43) rotate(5.90934)"/>
</clipPath>
<clipPath id="clip2_91_8289">
<rect width="64" height="64" fill="white" transform="translate(1143.03 237.931) rotate(-2.99425)"/>
</clipPath>
<clipPath id="clip3_91_8289">
<rect width="64" height="64" fill="white" transform="translate(557.659 277.559) rotate(-2.99425)"/>
</clipPath>
</defs>
</svg>
