<svg width="32" height="32" viewBox="0 0 32 32" fill="none" xmlns="http://www.w3.org/2000/svg">
<g clip-path="url(#clip0_627_3857)">
<path d="M9.37286 0.111749C7.67086 0.191749 6.50786 0.463749 5.49186 0.862749C4.43986 1.27275 3.54886 1.82275 2.66186 2.71275C1.77486 3.60375 1.22786 4.49575 0.820862 5.54875C0.426862 6.56775 0.160862 7.73075 0.0848619 9.43475C0.00986188 11.1377 -0.00613812 11.6858 0.00186188 16.0308C0.00986188 20.3757 0.0288619 20.9198 0.111862 22.6268C0.192862 24.3288 0.463862 25.4907 0.862862 26.5077C1.27386 27.5597 1.82286 28.4508 2.71386 29.3377C3.60386 30.2257 4.49586 30.7708 5.55186 31.1777C6.56986 31.5717 7.73286 31.8398 9.43586 31.9137C11.1389 31.9888 11.6879 32.0057 16.0309 31.9977C20.3749 31.9897 20.9219 31.9697 22.6279 31.8888C24.3349 31.8078 25.4909 31.5358 26.5079 31.1378C27.5599 30.7268 28.4519 30.1777 29.3379 29.2878C30.2249 28.3967 30.7709 27.5038 31.1779 26.4498C31.5719 25.4318 31.8399 24.2677 31.9139 22.5667C31.9879 20.8587 32.0059 20.3127 31.9979 15.9687C31.9889 11.6247 31.9699 11.0797 31.8889 9.37375C31.8079 7.66775 31.5369 6.50875 31.1379 5.49175C30.7269 4.43975 30.1779 3.54875 29.2879 2.66075C28.3969 1.77275 27.5039 1.22775 26.4499 0.821749C25.4319 0.427749 24.2689 0.159749 22.5659 0.0857493C20.8629 0.0117493 20.3139 -0.00625069 15.9689 0.00174931C11.6239 0.00974931 11.0799 0.0287493 9.37286 0.111749ZM9.55986 29.0357C7.99986 28.9677 7.15286 28.7087 6.58886 28.4918C5.84086 28.2038 5.30886 27.8557 4.74586 27.2987C4.18386 26.7418 3.83786 26.2068 3.54586 25.4608C3.32686 24.8968 3.06286 24.0507 2.98986 22.4907C2.91086 20.8047 2.89386 20.2987 2.88486 16.0268C2.87486 11.7548 2.89186 11.2497 2.96586 9.56275C3.03186 8.00375 3.29286 7.15575 3.50986 6.59175C3.79786 5.84275 4.14486 5.31175 4.70286 4.74975C5.26086 4.18675 5.79386 3.84075 6.54086 3.54875C7.10486 3.32875 7.95086 3.06675 9.50986 2.99275C11.1969 2.91275 11.7029 2.89675 15.9739 2.88775C20.2449 2.87875 20.7519 2.89475 22.4399 2.96875C23.9989 3.03675 24.8469 3.29475 25.4099 3.51275C26.1579 3.80075 26.6899 4.14675 27.2529 4.70575C27.8149 5.26575 28.1619 5.79575 28.4529 6.54475C28.6739 7.10675 28.9359 7.95275 29.0089 9.51275C29.0899 11.1997 29.1079 11.7057 29.1149 15.9767C29.1229 20.2477 29.1079 20.7547 29.0339 22.4408C28.9659 24.0007 28.7069 24.8477 28.4899 25.4128C28.2019 26.1607 27.8549 26.6927 27.2959 27.2547C26.7379 27.8167 26.2049 28.1628 25.4579 28.4548C24.8949 28.6747 24.0479 28.9377 22.4899 29.0117C20.8029 29.0907 20.2969 29.1077 16.0249 29.1168C11.7519 29.1258 11.2469 29.1087 9.55986 29.0357ZM22.6039 7.44875C22.6039 7.82775 22.7179 8.19875 22.9289 8.51475C23.1409 8.82975 23.4409 9.07575 23.7919 9.21975C24.1429 9.36475 24.5289 9.40275 24.9019 9.32775C25.2739 9.25275 25.6159 9.06975 25.8839 8.79975C26.1519 8.53075 26.3339 8.18875 26.4079 7.81575C26.4809 7.44375 26.4419 7.05775 26.2959 6.70675C26.1499 6.35675 25.9039 6.05675 25.5869 5.84675C25.2709 5.63575 24.8999 5.52475 24.5199 5.52475C24.0109 5.52575 23.5229 5.72975 23.1639 6.08975C22.8039 6.45075 22.6029 6.93875 22.6039 7.44875ZM7.78486 16.0158C7.79386 20.5528 11.4789 24.2238 16.0149 24.2148C20.5519 24.2057 24.2249 20.5208 24.2159 15.9837C24.2069 11.4457 20.5209 7.77475 15.9839 7.78375C11.4469 7.79275 7.77586 11.4788 7.78486 16.0158ZM10.6669 16.0098C10.6639 14.9548 10.9749 13.9237 11.5599 13.0447C12.1439 12.1667 12.9749 11.4817 13.9489 11.0757C14.9229 10.6707 15.9949 10.5627 17.0299 10.7667C18.0649 10.9697 19.0159 11.4757 19.7639 12.2207C20.5109 12.9647 21.0209 13.9147 21.2289 14.9487C21.4369 15.9827 21.3329 17.0557 20.9309 18.0308C20.5299 19.0058 19.8479 19.8407 18.9719 20.4277C18.0959 21.0157 17.0649 21.3307 16.0109 21.3328C15.3099 21.3348 14.6159 21.1978 13.9689 20.9307C13.3209 20.6647 12.7319 20.2727 12.2359 19.7787C11.7399 19.2837 11.3459 18.6968 11.0759 18.0508C10.8069 17.4038 10.6679 16.7108 10.6669 16.0098Z" fill="white"/>
</g>
<defs>
<clipPath id="clip0_627_3857">
<rect width="32" height="32" fill="white"/>
</clipPath>
</defs>
</svg>
