<svg width="32" height="32" viewBox="0 0 32 32" fill="none" xmlns="http://www.w3.org/2000/svg">
<g clip-path="url(#clip0_627_3853)">
<path d="M27.266 27.1762H22.524V19.7752C22.524 18.0102 22.493 15.7392 20.058 15.7392C17.589 15.7392 17.211 17.6612 17.211 19.6472V27.1762H12.469V11.9562H17.021V14.0362H17.085C17.54 13.2602 18.199 12.6212 18.99 12.1882C19.78 11.7552 20.674 11.5442 21.576 11.5782C26.382 11.5782 27.268 14.7282 27.268 18.8272L27.266 27.1762ZM7.119 9.8762C6.575 9.8762 6.043 9.71519 5.591 9.4142C5.138 9.1132 4.785 8.6842 4.577 8.1832C4.369 7.6822 4.314 7.1312 4.42 6.5992C4.526 6.0672 4.788 5.5782 5.173 5.1952C5.558 4.8112 6.048 4.5502 6.582 4.4442C7.115 4.3382 7.669 4.3922 8.171 4.5992C8.674 4.8072 9.104 5.1582 9.407 5.6092C9.709 6.0602 9.87 6.5912 9.871 7.1332C9.871 7.4932 9.799 7.8502 9.661 8.1822C9.523 8.5152 9.32 8.8182 9.065 9.0722C8.81 9.3272 8.506 9.5292 8.172 9.6672C7.839 9.80519 7.481 9.8762 7.119 9.8762ZM9.49 27.1762H4.744V11.9562H9.49V27.1762ZM29.629 0.00219535H2.361C1.742 -0.00480465 1.146 0.233195 0.703 0.665195C0.26 1.0962 0.008 1.6842 0 2.3012V29.5932C0.007 30.2102 0.26 30.7992 0.703 31.2312C1.146 31.6622 1.742 31.9012 2.361 31.8942H29.629C30.25 31.9022 30.848 31.6642 31.292 31.2332C31.737 30.8012 31.991 30.2112 32 29.5932V2.2992C31.991 1.6812 31.736 1.0922 31.292 0.661195C30.848 0.230195 30.249 -0.00780465 29.629 0.00019535" fill="white"/>
</g>
<defs>
<clipPath id="clip0_627_3853">
<rect width="32" height="32" fill="white"/>
</clipPath>
</defs>
</svg>
