<svg width="20" height="21" viewBox="0 0 20 21" fill="none" xmlns="http://www.w3.org/2000/svg">
<path d="M9 4.49996C8.237 4.49996 7.525 4.71296 6.918 5.08396C6.85526 4.74837 6.74091 4.42453 6.579 4.12396C7.34029 3.70266 8.19835 3.48732 9.06836 3.49921C9.93838 3.51111 10.7902 3.74984 11.5397 4.19179C12.2892 4.63375 12.9104 5.26364 13.3419 6.01921C13.7734 6.77478 14.0002 7.62987 14 8.49996L16.501 8.49996C16.8987 8.50023 17.2799 8.65838 17.561 8.93965C17.8421 9.22093 18 9.60231 18 9.99996L18 16C18 16.3978 17.842 16.7793 17.5607 17.0606C17.2794 17.3419 16.8978 17.5 16.5 17.5L10.5 17.5C10.1022 17.5 9.72064 17.3419 9.43934 17.0606C9.15804 16.7793 9 16.3978 9 16L9 13.5C8.30438 13.5008 7.61629 13.3561 6.98 13.075C6.993 12.735 7 12.378 7 12L7 11.965C7.588 12.305 8.271 12.5 9 12.5L9 9.99996C9 9.60214 9.15804 9.2206 9.43934 8.9393C9.72064 8.658 10.1022 8.49996 10.5 8.49996L13 8.49996C13 7.43909 12.5786 6.42168 11.8284 5.67153C11.0783 4.92139 10.0609 4.49996 9 4.49996ZM13.9 9.49996C13.7033 10.4605 13.2289 11.3422 12.5355 12.0355C11.8422 12.7288 10.9606 13.2033 10 13.4L10 16C10 16.1326 10.0527 16.2597 10.1464 16.3535C10.2402 16.4473 10.3674 16.5 10.5 16.5L16.5 16.5C16.6326 16.5 16.7598 16.4473 16.8536 16.3535C16.9473 16.2597 17 16.1326 17 16L17 9.99996C17 9.86735 16.9473 9.74017 16.8536 9.64641C16.7598 9.55264 16.6326 9.49996 16.5 9.49996L13.9 9.49996ZM12.874 9.49996L10.5 9.49996C10.3674 9.49996 10.2402 9.55264 10.1464 9.64641C10.0527 9.74017 10 9.86735 10 9.99996L10 12.374C10.6918 12.1947 11.3231 11.8337 11.8284 11.3284C12.3338 10.8231 12.6948 10.1918 12.874 9.49996ZM4.581 2.62496C4.664 2.69756 4.72068 2.79557 4.7422 2.90372C4.76372 3.01188 4.74889 3.12411 4.7 3.22296C4.69153 3.25222 4.68716 3.2825 4.687 3.31296C4.687 3.37596 4.703 3.49596 4.854 3.64596C4.927 3.71896 4.983 3.77096 5.044 3.82796C5.094 3.87396 5.147 3.92196 5.214 3.98796C5.344 4.11196 5.481 4.25796 5.604 4.44096C5.859 4.82396 6 5.30296 6 5.99996C6 6.85296 5.684 7.57996 5.191 8.02596L5.255 8.09996C5.535 8.44396 5.698 8.88996 5.8 9.32996C6 10.2 6 11.246 6 11.975L6 12C6 14.787 5.621 16.368 5.204 17.272C4.994 17.727 4.771 18.017 4.578 18.199C4.49953 18.2742 4.41301 18.3406 4.32 18.397C4.27741 18.4226 4.23295 18.445 4.187 18.464C4.187 18.464 4.074 18.5 4 18.5C3.926 18.5 3.813 18.464 3.813 18.464C3.76655 18.4461 3.72199 18.4237 3.68 18.397C3.58699 18.3406 3.50047 18.2742 3.422 18.199C3.229 18.016 3.006 17.727 2.796 17.272C2.379 16.368 2 14.787 2 12L2 11.975C2 11.245 2 10.2 2.2 9.32996C2.302 8.88996 2.465 8.44396 2.745 8.09996C2.765 8.07496 2.787 8.04996 2.809 8.02596C2.316 7.57996 2 6.85296 2 5.99996C2 5.67396 2.087 5.28496 2.207 4.92596C2.327 4.56596 2.495 4.19396 2.689 3.89396C2.92 3.50396 3.245 3.17696 3.497 2.95696C3.63516 2.83546 3.77934 2.72098 3.929 2.61396L3.959 2.59396L3.968 2.58696L3.971 2.58496L3.973 2.58396C4.0647 2.52284 4.17402 2.49372 4.28397 2.50113C4.39392 2.50855 4.49834 2.55208 4.581 2.62496ZM4 7.49996C4.387 7.49896 5 7.06996 5 5.99996C5 5.44696 4.891 5.17596 4.771 4.99596C4.69804 4.89083 4.61388 4.79393 4.52 4.70696L4.396 4.59096C4.315 4.51496 4.22 4.42696 4.146 4.35396C4.03663 4.24573 3.94274 4.1229 3.867 3.98896C3.73971 4.1228 3.62769 4.27037 3.533 4.42896C3.393 4.64396 3.257 4.93896 3.156 5.24296C3.052 5.55296 3 5.82696 3 5.99996C3 7.07196 3.615 7.49996 4 7.49996ZM3.52 8.73196C3.378 8.90496 3.26 9.18096 3.174 9.55496C3.002 10.303 3 11.243 3 12C3 14.713 3.371 16.132 3.704 16.853C3.814 17.09 3.917 17.248 4 17.353C4.11815 17.1986 4.21752 17.0308 4.296 16.853C4.629 16.132 5 14.713 5 12C5 11.243 4.998 10.303 4.825 9.55496C4.739 9.18096 4.621 8.90496 4.48 8.73196C4.42484 8.65722 4.35231 8.59704 4.26868 8.55662C4.18505 8.5162 4.09283 8.49675 4 8.49996L3.998 8.49996C3.90549 8.49699 3.81364 8.51656 3.73037 8.55698C3.6471 8.59739 3.5749 8.65744 3.52 8.73196Z" fill="white"/>
</svg>
