<svg width="1390" height="1307" viewBox="0 0 1390 1307" fill="none" xmlns="http://www.w3.org/2000/svg">
<path d="M1236 215.113L1233.11 218L1236 220.887L1238.89 218L1236 215.113ZM1233.33 687C1233.33 688.473 1234.53 689.667 1236 689.667C1237.47 689.667 1238.67 688.473 1238.67 687C1238.67 685.527 1237.47 684.333 1236 684.333C1234.53 684.333 1233.33 685.527 1233.33 687ZM1388.5 612C1388.5 995.009 1078.01 1305.5 695 1305.5V1306.5C1078.56 1306.5 1389.5 995.562 1389.5 612H1388.5ZM695 1305.5C311.991 1305.5 1.5 995.009 1.5 612H0.5C0.5 995.562 311.438 1306.5 695 1306.5V1305.5ZM1.5 612C1.5 228.991 311.991 -81.5 695 -81.5V-82.5C311.438 -82.5 0.5 228.438 0.5 612H1.5ZM695 -81.5C1078.01 -81.5 1388.5 228.991 1388.5 612H1389.5C1389.5 228.438 1078.56 -82.5 695 -82.5V-81.5ZM1234.5 442.5C1234.5 740.181 992.958 981.5 695 981.5V982.5C993.509 982.5 1235.5 740.734 1235.5 442.5H1234.5ZM695 981.5C397.042 981.5 155.5 740.181 155.5 442.5H154.5C154.5 740.734 396.491 982.5 695 982.5V981.5ZM155.5 442.5C155.5 144.819 397.042 -96.5 695 -96.5V-97.5C396.491 -97.5 154.5 144.266 154.5 442.5H155.5ZM695 -96.5C992.958 -96.5 1234.5 144.819 1234.5 442.5H1235.5C1235.5 144.266 993.509 -97.5 695 -97.5V-96.5ZM1235.5 218V687H1236.5V218H1235.5Z" fill="white" fill-opacity="0.5"/>
</svg>
