<svg width="17" height="17" viewBox="0 0 17 17" fill="none" xmlns="http://www.w3.org/2000/svg">
<path d="M11.5884 9.91675C11.6451 9.44925 11.6876 8.98175 11.6876 8.50008C11.6876 8.01842 11.6451 7.55092 11.5884 7.08342L13.9826 7.08342C14.0959 7.53675 14.1667 8.01133 14.1667 8.50008C14.1667 8.98883 14.0959 9.46342 13.9826 9.91675M10.3347 13.8551C10.7597 13.0688 11.0855 12.2188 11.3122 11.3334L13.4017 11.3334C12.7155 12.5151 11.6267 13.4102 10.3347 13.8551ZM10.1576 9.91675L6.84258 9.91675C6.77175 9.44925 6.72925 8.98175 6.72925 8.50008C6.72925 8.01842 6.77175 7.54383 6.84258 7.08342L10.1576 7.08342C10.2213 7.54383 10.2709 8.01842 10.2709 8.50008C10.2709 8.98175 10.2213 9.44925 10.1576 9.91675ZM8.50008 14.1384C7.91217 13.2884 7.43758 12.3463 7.14717 11.3334L9.853 11.3334C9.56258 12.3463 9.088 13.2884 8.50008 14.1384ZM5.66675 5.66675L3.59841 5.66675C4.2776 4.48186 5.36556 3.5853 6.65841 3.14508C6.23341 3.93133 5.91466 4.78133 5.66675 5.66675ZM3.59841 11.3334L5.66675 11.3334C5.91466 12.2188 6.23341 13.0688 6.65841 13.8551C5.36827 13.41 4.28185 12.5147 3.59841 11.3334ZM3.01758 9.91675C2.90425 9.46342 2.83341 8.98883 2.83341 8.50008C2.83341 8.01133 2.90425 7.53675 3.01758 7.08342L5.41175 7.08342C5.35508 7.55092 5.31258 8.01841 5.31258 8.50008C5.31258 8.98175 5.35508 9.44925 5.41175 9.91675M8.50008 2.85466C9.088 3.70466 9.56258 4.65383 9.853 5.66675L7.14717 5.66675C7.43758 4.65383 7.91217 3.70466 8.50008 2.85466ZM13.4017 5.66675L11.3122 5.66675C11.0905 4.78945 10.7622 3.94259 10.3347 3.14508C11.638 3.59133 12.7217 4.49091 13.4017 5.66675ZM8.50008 1.41675C4.583 1.41675 1.41675 4.60425 1.41675 8.50008C1.41675 10.3787 2.16303 12.1804 3.49141 13.5088C4.14916 14.1665 4.93002 14.6883 5.78941 15.0442C6.6488 15.4002 7.56989 15.5834 8.50008 15.5834C10.3787 15.5834 12.1804 14.8371 13.5088 13.5088C14.8371 12.1804 15.5834 10.3787 15.5834 8.50008C15.5834 7.56989 15.4002 6.6488 15.0442 5.78941C14.6883 4.93002 14.1665 4.14916 13.5088 3.49141C12.851 2.83366 12.0701 2.31191 11.2108 1.95593C10.3514 1.59996 9.43028 1.41675 8.50008 1.41675Z" fill="white"/>
</svg>
