<svg width="32" height="32" viewBox="0 0 32 32" fill="none" xmlns="http://www.w3.org/2000/svg">
<g clip-path="url(#clip0_627_3847)">
<path d="M28.724 9.68457C28.744 9.96757 28.744 10.2506 28.744 10.5356C28.744 19.2276 22.139 29.2516 10.063 29.2516V29.2466C6.496 29.2516 3.003 28.2276 0 26.2976C0.519 26.3596 1.04 26.3916 1.563 26.3926C4.519 26.3956 7.391 25.4016 9.716 23.5716C6.907 23.5176 4.443 21.6826 3.583 19.0036C4.567 19.1936 5.581 19.1546 6.547 18.8896C3.484 18.2696 1.281 15.5736 1.281 12.4426C1.281 12.4136 1.281 12.3866 1.281 12.3596C2.193 12.8686 3.215 13.1516 4.26 13.1826C1.375 11.2506 0.486 7.40557 2.228 4.39957C5.561 8.50857 10.479 11.0076 15.759 11.2716C15.23 8.98657 15.953 6.59257 17.658 4.98657C20.302 2.49657 24.461 2.62357 26.947 5.27157C28.417 4.98157 29.826 4.44057 31.116 3.67457C30.626 5.19757 29.6 6.49157 28.23 7.31257C29.531 7.15957 30.803 6.81057 32 6.27757C31.119 7.60056 30.008 8.75357 28.724 9.68457Z" fill="white"/>
</g>
<defs>
<clipPath id="clip0_627_3847">
<rect width="32" height="32" fill="white"/>
</clipPath>
</defs>
</svg>
